<?xml version="1.0" standalone="no"?>
<!DOCTYPE svg PUBLIC "-//W3C//DTD SVG 20010904//EN"
 "http://www.w3.org/TR/2001/REC-SVG-20010904/DTD/svg10.dtd">
<svg version="1.0" xmlns="http://www.w3.org/2000/svg"
 width="1901.000000pt" height="1901.000000pt" viewBox="0 0 1901.000000 1901.000000"
 preserveAspectRatio="xMidYMid meet">
<metadata>
Created by potrace 1.14, written by Peter Selinger 2001-2017
</metadata>
<g transform="translate(0.000000,1901.000000) scale(0.100000,-0.100000)"
fill="#000000" stroke="none">
<path d="M3627 11144 c-1 -1 -42 -5 -92 -8 -294 -21 -427 -51 -623 -144 -82
-38 -202 -116 -258 -167 -72 -66 -113 -107 -135 -136 -41 -55 -89 -145 -89
-167 0 -27 42 -69 77 -76 15 -4 1044 -5 2285 -4 l2257 3 23 23 c23 22 23 27
26 300 2 152 1 291 -3 308 -4 24 -15 36 -43 50 -35 16 -131 17 -1730 18 -932
1 -1694 0 -1695 0z"/>
<path d="M739 11110 c-25 -24 -29 -37 -30 -82 0 -29 0 -784 1 -1677 1 -1751
-2 -1663 52 -1688 30 -13 579 -15 618 -2 34 13 57 53 59 109 1 25 3 777 4
1672 l1 1627 -20 28 c-14 19 -34 30 -58 34 -21 3 -164 7 -318 7 l-281 1 -28
-29z"/>
<path d="M9042 11129 c-170 -21 -285 -51 -424 -112 -67 -30 -218 -125 -218
-138 0 -5 -5 -9 -11 -9 -15 0 -127 -115 -177 -181 -43 -57 -72 -117 -77 -156
-3 -33 35 -71 80 -81 22 -4 1023 -8 2225 -7 1704 1 2190 4 2208 13 49 27 51
41 55 317 2 143 0 275 -5 292 -5 18 -20 41 -35 50 -24 16 -141 17 -1792 18
-971 1 -1794 -2 -1829 -6z"/>
<path d="M13767 11132 c-9 -2 -15 -7 -12 -12 3 -4 -3 -7 -12 -6 -10 0 -23 -12
-32 -29 -12 -24 -14 -79 -13 -290 1 -143 5 -273 10 -289 4 -16 21 -39 36 -50
27 -21 33 -21 967 -22 l940 -1 27 -27 27 -26 2 -1333 c2 -956 6 -1338 14
-1353 6 -12 21 -26 33 -31 11 -5 139 -10 284 -11 l263 -2 25 27 24 26 1 1323
c2 1403 1 1348 12 1380 17 48 11 48 995 49 l924 0 23 27 c22 26 23 29 24 308
1 308 -3 331 -55 344 -28 7 -4473 5 -4507 -2z"/>
<path d="M2564 9782 c-81 -2 -95 -6 -118 -27 -22 -21 -26 -33 -27 -87 -4 -382
-3 -1076 3 -1123 26 -226 117 -400 293 -560 100 -91 109 -98 127 -110 9 -5 36
-25 62 -43 99 -71 231 -130 366 -164 32 -8 354 -12 1115 -14 589 -1 1194 -2
1345 -3 248 -1 346 2 405 13 104 20 207 50 280 82 22 10 42 18 45 19 11 1 125
69 131 78 3 5 9 8 13 7 11 -1 155 110 165 128 5 10 11 15 14 12 2 -3 11 2 20
11 9 9 13 20 9 24 -4 5 -2 5 4 2 25 -14 178 188 218 289 51 126 54 172 55 804
l0 585 -23 29 c-12 16 -34 32 -47 34 -40 9 -2152 8 -2182 -1 -50 -14 -56 -46
-58 -338 -1 -145 1 -279 5 -297 4 -18 17 -38 29 -45 17 -9 195 -12 782 -12
720 0 762 -1 789 -18 50 -33 53 -53 49 -359 -4 -301 -6 -313 -55 -339 -17 -9
-135 -12 -443 -11 -231 1 -956 1 -1612 2 l-1192 0 -26 23 c-19 17 -26 34 -29
77 -3 30 -6 327 -7 660 -2 655 -2 653 -56 666 -28 8 -296 11 -449 6z"/>
<path d="M8190 9779 c-50 -11 -80 -50 -81 -107 -3 -143 2 -1081 7 -1107 3 -16
7 -43 10 -60 28 -165 124 -334 274 -479 82 -80 248 -217 288 -237 15 -8 29
-16 32 -19 3 -3 32 -17 65 -32 68 -31 149 -55 215 -63 25 -3 61 -8 80 -10 19
-3 822 -5 1783 -6 1289 0 1758 3 1783 11 23 8 39 21 46 38 14 36 20 547 7 589
-8 25 -18 35 -47 43 -25 6 -665 10 -1912 10 -1186 0 -1888 4 -1910 10 -64 18
-65 23 -67 339 0 171 3 295 9 313 6 16 22 37 36 46 24 16 156 17 1927 17 1563
0 1904 2 1923 13 46 26 50 57 47 348 -2 180 -7 278 -14 292 -29 54 42 52
-1438 53 -752 1 -1741 2 -2198 3 -456 1 -846 -1 -865 -5z"/>
</g>
</svg>
